<?xml version="1.0" encoding="utf-8"?>
<!-- Generator: Adobe Adobe Illustrator 29.2.0, SVG Export Plug-In . SVG Version: 6.00 Build 0)  -->
<svg version="1.1" id="business_card" xmlns="http://www.w3.org/2000/svg" xmlns:xlink="http://www.w3.org/1999/xlink" x="0px"
	 y="0px" viewBox="0 0 168 74" style="enable-background:new 0 0 168 74;" xml:space="preserve">
<style type="text/css">
	.st0{fill:#3B1C96;}
	.st1{fill:#68AFD3;}
</style>
<g id="logo_00000170988208016869282990000006055528763917444781_">
	<g id="O_and_logo_00000070103701633609335510000008737973845423943066_">
		<path id="O_left_side_00000066516482208962098050000003538065604586682035_" class="st0" d="M123.75,36.57
			c-1.39-1.44-3.9,2.89-4.58,5.26c-1.53,5.28-1.12,9.28-0.68,10.47c1.52,4.12,1.49,3.86,3.88,6.18c1.8,1.75,3.69,2.77,8.44,2.89
			c3.66,0.09,3.81-0.28,4.18-0.73c0.86-1.02-1.16-6.91-1.8-4.69c-0.08,0.29-5.08,0.52-7.35-2.34c-2.03-2.57-3.17-5.2-2.48-8.34
			c0.75-3.4,3.89-6.42,6.1-6.43C131.11,38.83,125.44,38.32,123.75,36.57z"/>
		<path id="O_right_side_00000068656980490672527690000018184299312090073258_" class="st0" d="M138.38,35.42
			c1.62-1.16,7.96,5.31,7.81,11.63c-0.17,7.2-0.99,4.89-0.05,5.68c0.04,0.04-3.52-2.98-4.99-4.59c-1.18-1.3-1.13-1.03-1.3-2.73
			c-0.22-2.15-1.82-3.9-2.31-4.44c-1.81-2.02-4.26-2.35-4.72-2.51C131.22,37.9,136.83,36.53,138.38,35.42z"/>
		<g id="face_logo_00000047027695865171546330000000411747832553711757_">
			<g id="head_00000010276456172956383550000016366539466831916450_">
				<path id="neck_00000153694101838280946150000000318376644963536555_" class="st0" d="M118.03,24.7
					c-0.45-5.52,4.71-5.01,8.42-4.52c1.61,0.32,4.61,0.18,1.21-0.51c-3.48-0.53-9.7-2.36-10.76,2.64c-0.38,1.53-0.09,3.17,0.7,4.51
					c0.21,0.37,0.43,0.65,0.59,0.6c0.34-0.08-0.15-1.87-0.17-2.69L118.03,24.7z"/>
				<path id="head_00000099631763240324905040000004708428453238152092_" class="st0" d="M121.29,25.93
					c0.37,0.21,1.06-0.1,1.62,0.28c1.17,0.91,0.64,2.9,0.06,4.06c-0.4,0.8-0.3,1.08,0.25,0.53c0.72-0.76,0.86-1.88,0.92-2.91
					c0.11-1.14-0.12-2.45-1.31-2.76c-0.43-0.14-0.98-0.03-1.3,0.23c-0.28,0.21-0.38,0.45-0.26,0.54L121.29,25.93z"/>
			</g>
			<g id="crown_00000063602084485573811950000001927990825968418215_">
				<path id="crown_3_00000179616250889848434210000014002380749508924567_" class="st1" d="M123.66,17.87
					c2.26-0.46,4.24-1.93,5.24-4.09c0.25-0.58,0.58-1.2,0.5-1.78c-0.43-0.45-2.11,1.98-2.6,2.36c-1.16,1.24-2.83,2.03-4.26,2.78
					c-1.51,0.9-0.17,1.04,1.05,0.74L123.66,17.87z"/>
				<path id="crown_2_00000176004788397701814680000012965550235221565587_" class="st1" d="M119.22,18.67
					c0.89-0.58,1.81-1.31,2.73-1.9c1.03-0.68,2.07-1.19,2.94-1.98c0.71-0.61,1.47-1.59,1.9-2.32c0.56-0.94,0.35-0.96-0.26-0.44
					c-0.85,0.73-1.76,1.59-2.67,2.26c-1.14,0.87-2.34,1.48-3.45,2.42c-0.5,0.42-1.04,0.95-1.42,1.45c-0.27,0.33-0.59,1,0.2,0.52
					L119.22,18.67z"/>
				<path id="crown_1_00000025417097970460161820000015620553735105408425_" class="st1" d="M118.23,17.81
					c0.53-0.71,1.06-1.27,1.73-1.83c0.38-0.32,3.12-2.41,2.59-2.72c-1.17,0.36-2.37,1-3.39,1.74c-0.73,0.56-1.34,1.35-1.69,2.25
					c-0.42,1.14-0.61,2.53,0.72,0.62L118.23,17.81z"/>
			</g>
			<g id="wing_00000005974922641705890010000002206966594305413026_">
				<path id="end_top_wing_00000090282151146407240590000005287055495932670372_" class="st1" d="M131.15,24.08
					c2.37-1.51,5.39-3.41,7.77-5.12c3.02-2.22,5.71-4.96,7.95-8.03c2.2-2.76,3.17-6.4,3.04-9.95c-0.05-1.53-0.31-1.14-0.91,0.19
					c-2.64,5.37-4.82,11.53-9.24,15.65C137.25,19.3,133.65,21.88,131.15,24.08L131.15,24.08z"/>
				<path id="wing_5_00000146488660605387915120000001056415070534248341_" class="st1" d="M133.1,25.98
					c1.48-0.79,4.36-2.83,6.34-4.06c1.68-1.1,3.04-1.94,4.61-3.31c2.83-2.4,5.12-5.74,6.57-9.19c0.44-1.04,0.4-1.36-0.38-0.48
					c-3.48,4.42-7.19,8.75-11.45,12.36C137.02,22.88,134.86,24.48,133.1,25.98L133.1,25.98z"/>
				<path id="wing_4_00000003783033999425285920000003234293087539231393_" class="st1" d="M141.69,24.65
					c2.49-1.51,4.63-3.58,6.42-5.93c0.55-0.72,1.11-1.42,1.53-2.07c0.08-0.14,0.1-0.21,0.03-0.19c-1.19,0.82-2.93,2.46-4.19,3.46
					c-1.47,1.25-2.67,2.18-4.16,3.32c-2.15,1.58-4.67,2.98-7.01,4.4c-3.28,1.89-1.74,1.16,0.85,0.19c2.24-0.83,4.42-1.8,6.47-3.15
					L141.69,24.65z"/>
				<path id="middle_wing_00000030484873427314689900000000228062021145226118_" class="st1" d="M132.57,30.9
					c0.02,0.07,0.25,0.06,0.66,0.01c0.64-0.1,1.5-0.27,2.19-0.42c4.63-0.9,8.73-3.27,11.71-7.03c0.6-0.74,0.39-0.87-0.43-0.37
					c-1.89,1.19-3.59,3.04-5.59,4.09c-2.21,1.12-4.63,1.66-6.89,2.77C133.68,30.22,132.77,30.57,132.57,30.9L132.57,30.9z"/>
				<path id="wing_2_00000155866625113247475920000011504892575863181234_" class="st1" d="M132.69,32.96
					c0.04-0.12,0.17-0.15,0.27-0.19c1.12-0.31,2.39-0.41,3.52-0.76c1.72-0.48,3.37-1.1,4.87-2.03c1.02-0.59,2-1.46,3.01-2.04
					c0.41-0.21,0.68-0.27,0.6,0.1c-1.57,2.97-4.97,4.42-8.03,4.96c-1.22,0.22-2.59,0.45-3.81,0.21c-0.28-0.06-0.44-0.15-0.44-0.23
					L132.69,32.96z"/>
				<path id="wing_1_00000096025578847983955040000014537469077920225189_" class="st1" d="M129.39,35.34
					c-0.01-0.11,0.15-0.19,0.5-0.25c0.66-0.1,1.52-0.12,2.22-0.17c2.48-0.05,4.51-0.53,6.85-1.07c1.26-0.25,1.52,0.25,0.45,1.04
					c-0.8,0.61-1.8,1.1-2.79,1.3c-1.53,0.37-6.08,0.28-7.23-0.85L129.39,35.34z"/>
				<path id="start_bottom_wing_00000065759119104553903470000002710403417057897137_" class="st1" d="M122.3,35.8
					c0.26,0.06,0.89,0.35,1.24,0.46c1.12,0.42,2.56,0.52,3.82,0.66c2.41,0.24,4.8,0.44,7.27,0.41c0.36,0.03,1.19-0.03,1.33,0.25
					c-1.07,1.01-5.01,1.44-6.59,1.36c-1.44-0.21-2.99-0.5-4.28-1.19c-0.77-0.45-1.8-1.22-2.46-1.65
					C122.37,35.9,122.24,35.8,122.3,35.8L122.3,35.8z"/>
			</g>
			<g id="Tail_00000060021769480100165710000012324384927149487785_">
				<path class="st0" d="M125.74,40.89c1.24,2.91,2.83,5.7,4.41,8.58c1.61,2.95,3.35,6.04,4.07,9.4c0.58,2.56,0.94,5.17,0.14,7.69
					c-0.33,1.37,0.11,0.8,0.53-0.24c0.56-1.35,0.59-3.12,0.65-4.61c0.11-2.92-0.38-5.82-1.58-8.38c-1.44-2.98-3.28-5.66-5.11-8.22
					c-0.82-1.15-1.97-2.76-2.6-3.62C125.94,41.04,125.75,40.81,125.74,40.89L125.74,40.89z"/>
				<path class="st0" d="M128.15,41.22c1.69,3.17,3.82,6.24,5.7,9.4c1.3,2.19,2.46,4.43,3.61,6.73c1.74,3.37,2.83,6.44,2.15,10.23
					c-0.15,1.45,0.09,1.05,0.49-0.17c2.12-7.12-2.63-14.35-6.79-19.55c-1.46-1.88-3.5-4.58-4.52-5.92c-0.46-0.6-0.69-0.88-0.64-0.73
					L128.15,41.22z"/>
				<path class="st0" d="M130.72,42c0.32,0.79,1.2,2.13,1.75,3c2.33,3.58,4.54,6.72,6.95,10.02c1.84,2.54,3.64,4.87,4.83,7.8
					c0.53,1.36,0.79,2.99,1.14,4.31c0.36,1.53,0.48,0.76,0.5-0.46c0.03-6.09-3.92-11.21-7.42-15.71c-1.91-2.37-4.8-6.1-7.15-8.64
					c-0.48-0.49-0.7-0.63-0.61-0.35L130.72,42z"/>
				<path class="st0" d="M133.39,41.84c-0.07,0,0.1,0.33,0.45,0.9c0.53,0.85,1.23,1.93,1.81,2.82c2.16,3.43,4.55,6.29,7.09,9.29
					c2.02,2.45,4.11,4.82,5.86,7.49c0.88,1.34,1.51,3.14,2.05,4.57c0.22,0.57,0.36,0.82,0.43,0.77c0.1-0.86-0.28-2.38-0.6-3.55
					c-0.48-1.68-1.4-3.2-2.33-4.66c-1.54-2.37-3.39-4.62-5.21-6.79c-1.73-2.04-3.55-4.08-5.26-6.02
					C136.32,45.18,134.75,43.07,133.39,41.84L133.39,41.84z"/>
				<path class="st0" d="M136.59,43.61c0.01,0.53,1.14,1.76,1.66,2.47c2.48,3.15,5.54,6.22,8.42,9.05c4.59,4.53,7.6,7.58,9.91,13.89
					c0.63,1.57,0.69,1.23,0.36-0.3c-1.54-8.09-7.19-13.47-12.93-18.56c-1.76-1.58-3.54-3.25-5.26-4.84
					C138.12,44.79,137.06,43.64,136.59,43.61L136.59,43.61z"/>
			</g>
		</g>
	</g>
	<g id="letterhead_00000018960143297267158000000017463430188942304913_">
		<path class="st0" d="M16.06,33.61h8.67v9.9h9.47v-9.9h8.71v28.28H34.2V50.45h-9.47v11.44h-8.67V33.61z"/>
		<path class="st0" d="M66.93,33.61h8.65v16.85c0,1.67-0.26,3.25-0.78,4.73c-0.52,1.48-1.33,2.78-2.43,3.89
			c-1.1,1.11-2.26,1.89-3.47,2.34c-1.68,0.63-3.71,0.94-6.07,0.94c-1.37,0-2.85-0.1-4.47-0.29c-1.61-0.19-2.96-0.58-4.05-1.15
			c-1.08-0.57-2.08-1.38-2.98-2.44c-0.9-1.05-1.52-2.14-1.85-3.26c-0.54-1.8-0.8-3.39-0.8-4.78V33.61h8.65v17.25
			c0,1.54,0.42,2.75,1.27,3.61c0.85,0.87,2.02,1.3,3.53,1.3c1.49,0,2.66-0.43,3.51-1.28c0.85-0.85,1.27-2.07,1.27-3.63V33.61z"/>
		<path class="st0" d="M81.22,33.61h11.4l4.4,17.21l4.37-17.21h11.39v28.28h-7.1V40.32l-5.47,21.56h-6.43l-5.46-21.56v21.56h-7.1
			V33.61z"/>
	</g>
</g>
</svg>
