<?xml version="1.0" encoding="utf-8"?>
<!-- Generator: Adobe Adobe Illustrator 29.2.0, SVG Export Plug-In . SVG Version: 6.00 Build 0)  -->
<svg version="1.1" id="business_card" xmlns="http://www.w3.org/2000/svg" xmlns:xlink="http://www.w3.org/1999/xlink" x="0px"
	 y="0px" viewBox="0 0 160 84" style="enable-background:new 0 0 160 84;" xml:space="preserve">
<style type="text/css">
	.st0{fill:#3B1C96;}
	.st1{fill:#68AFD3;}
	.st2{fill:#CD1F0D;}
</style>
<g id="logo_00000170988208016869282990000006055528763917444781_">
	<g id="O_and_logo_00000070103701633609335510000008737973845423943066_">
		<path id="O_left_side_00000066516482208962098050000003538065604586682035_" class="st0" d="M118.75,36.57
			c-1.39-1.44-3.9,2.89-4.58,5.26c-1.53,5.28-1.12,9.28-0.68,10.47c1.52,4.12,1.49,3.86,3.88,6.18c1.8,1.75,3.69,2.77,8.44,2.89
			c3.66,0.09,3.81-0.28,4.18-0.73c0.86-1.02-1.16-6.91-1.8-4.69c-0.08,0.29-5.08,0.52-7.35-2.34c-2.03-2.57-3.17-5.2-2.48-8.34
			c0.75-3.4,3.89-6.42,6.1-6.43C126.11,38.83,120.44,38.32,118.75,36.57z"/>
		<path id="O_right_side_00000068656980490672527690000018184299312090073258_" class="st0" d="M133.38,35.42
			c1.62-1.16,7.96,5.31,7.81,11.63c-0.17,7.2-0.99,4.89-0.05,5.68c0.04,0.04-3.52-2.98-4.99-4.59c-1.18-1.3-1.13-1.03-1.3-2.73
			c-0.22-2.15-1.82-3.9-2.31-4.44c-1.81-2.02-4.26-2.35-4.72-2.51C126.22,37.9,131.83,36.53,133.38,35.42z"/>
		<g id="face_logo_00000047027695865171546330000000411747832553711757_">
			<g id="head_00000010276456172956383550000016366539466831916450_">
				<path id="neck_00000153694101838280946150000000318376644963536555_" class="st0" d="M113.03,24.7
					c-0.45-5.52,4.71-5.01,8.42-4.52c1.61,0.32,4.61,0.18,1.21-0.51c-3.48-0.53-9.7-2.36-10.76,2.64c-0.38,1.53-0.09,3.17,0.7,4.51
					c0.21,0.37,0.43,0.65,0.59,0.6c0.34-0.08-0.15-1.87-0.17-2.69L113.03,24.7z"/>
				<path id="head_00000099631763240324905040000004708428453238152092_" class="st0" d="M116.29,25.93
					c0.37,0.21,1.06-0.1,1.62,0.28c1.17,0.91,0.64,2.9,0.06,4.06c-0.4,0.8-0.3,1.08,0.25,0.53c0.72-0.76,0.86-1.88,0.92-2.91
					c0.11-1.14-0.12-2.45-1.31-2.76c-0.43-0.14-0.98-0.03-1.3,0.23c-0.28,0.21-0.38,0.45-0.26,0.54L116.29,25.93z"/>
			</g>
			<g id="crown_00000063602084485573811950000001927990825968418215_">
				<path id="crown_3_00000179616250889848434210000014002380749508924567_" class="st1" d="M118.66,17.87
					c2.26-0.46,4.24-1.93,5.24-4.09c0.25-0.58,0.58-1.2,0.5-1.78c-0.43-0.45-2.11,1.98-2.6,2.36c-1.16,1.24-2.83,2.03-4.26,2.78
					c-1.51,0.9-0.17,1.04,1.05,0.74L118.66,17.87z"/>
				<path id="crown_2_00000176004788397701814680000012965550235221565587_" class="st1" d="M114.22,18.67
					c0.89-0.58,1.81-1.31,2.73-1.9c1.03-0.68,2.07-1.19,2.94-1.98c0.71-0.61,1.47-1.59,1.9-2.32c0.56-0.94,0.35-0.96-0.26-0.44
					c-0.85,0.73-1.76,1.59-2.67,2.26c-1.14,0.87-2.34,1.48-3.45,2.42c-0.5,0.42-1.04,0.95-1.42,1.45c-0.27,0.33-0.59,1,0.2,0.52
					L114.22,18.67z"/>
				<path id="crown_1_00000025417097970460161820000015620553735105408425_" class="st1" d="M113.23,17.81
					c0.53-0.71,1.06-1.27,1.73-1.83c0.38-0.32,3.12-2.41,2.59-2.72c-1.17,0.36-2.37,1-3.39,1.74c-0.73,0.56-1.34,1.35-1.69,2.25
					c-0.42,1.14-0.61,2.53,0.72,0.62L113.23,17.81z"/>
			</g>
			<g id="wing_00000005974922641705890010000002206966594305413026_">
				<path id="end_top_wing_00000090282151146407240590000005287055495932670372_" class="st1" d="M126.15,24.08
					c2.37-1.51,5.39-3.41,7.77-5.12c3.02-2.22,5.71-4.96,7.95-8.03c2.2-2.76,3.17-6.4,3.04-9.95c-0.05-1.53-0.31-1.14-0.91,0.19
					c-2.64,5.37-4.82,11.53-9.24,15.65C132.25,19.3,128.65,21.88,126.15,24.08L126.15,24.08z"/>
				<path id="wing_5_00000146488660605387915120000001056415070534248341_" class="st1" d="M128.1,25.98
					c1.48-0.79,4.36-2.83,6.34-4.06c1.68-1.1,3.04-1.94,4.61-3.31c2.83-2.4,5.12-5.74,6.57-9.19c0.44-1.04,0.4-1.36-0.38-0.48
					c-3.48,4.42-7.19,8.75-11.45,12.36C132.02,22.88,129.86,24.48,128.1,25.98L128.1,25.98z"/>
				<path id="wing_4_00000003783033999425285920000003234293087539231393_" class="st1" d="M136.69,24.65
					c2.49-1.51,4.63-3.58,6.42-5.93c0.55-0.72,1.11-1.42,1.53-2.07c0.08-0.14,0.1-0.21,0.03-0.19c-1.19,0.82-2.93,2.46-4.19,3.46
					c-1.47,1.25-2.67,2.18-4.16,3.32c-2.15,1.58-4.67,2.98-7.01,4.4c-3.28,1.89-1.74,1.16,0.85,0.19c2.24-0.83,4.42-1.8,6.47-3.15
					L136.69,24.65z"/>
				<path id="middle_wing_00000030484873427314689900000000228062021145226118_" class="st1" d="M127.57,30.9
					c0.02,0.07,0.25,0.06,0.66,0.01c0.64-0.1,1.5-0.27,2.19-0.42c4.63-0.9,8.73-3.27,11.71-7.03c0.6-0.74,0.39-0.87-0.43-0.37
					c-1.89,1.19-3.59,3.04-5.59,4.09c-2.21,1.12-4.63,1.66-6.89,2.77C128.68,30.22,127.77,30.57,127.57,30.9L127.57,30.9z"/>
				<path id="wing_2_00000155866625113247475920000011504892575863181234_" class="st1" d="M127.69,32.96
					c0.04-0.12,0.17-0.15,0.27-0.19c1.12-0.31,2.39-0.41,3.52-0.76c1.72-0.48,3.37-1.1,4.87-2.03c1.02-0.59,2-1.46,3.01-2.04
					c0.41-0.21,0.68-0.27,0.6,0.1c-1.57,2.97-4.97,4.42-8.03,4.96c-1.22,0.22-2.59,0.45-3.81,0.21c-0.28-0.06-0.44-0.15-0.44-0.23
					L127.69,32.96z"/>
				<path id="wing_1_00000096025578847983955040000014537469077920225189_" class="st1" d="M124.39,35.34
					c-0.01-0.11,0.15-0.19,0.5-0.25c0.66-0.1,1.52-0.12,2.22-0.17c2.48-0.05,4.51-0.53,6.85-1.07c1.26-0.25,1.52,0.25,0.45,1.04
					c-0.8,0.61-1.8,1.1-2.79,1.3c-1.53,0.37-6.08,0.28-7.23-0.85L124.39,35.34z"/>
				<path id="start_bottom_wing_00000065759119104553903470000002710403417057897137_" class="st1" d="M117.3,35.8
					c0.26,0.06,0.89,0.35,1.24,0.46c1.12,0.42,2.56,0.52,3.82,0.66c2.41,0.24,4.8,0.44,7.27,0.41c0.36,0.03,1.19-0.03,1.33,0.25
					c-1.07,1.01-5.01,1.44-6.59,1.36c-1.44-0.21-2.99-0.5-4.28-1.19c-0.77-0.45-1.8-1.22-2.46-1.65
					C117.37,35.9,117.24,35.8,117.3,35.8L117.3,35.8z"/>
			</g>
			<g id="Tail_00000060021769480100165710000012324384927149487785_">
				<path class="st0" d="M120.74,40.89c1.24,2.91,2.83,5.7,4.41,8.58c1.61,2.95,3.35,6.04,4.07,9.4c0.58,2.56,0.94,5.17,0.14,7.69
					c-0.33,1.37,0.11,0.8,0.53-0.24c0.56-1.35,0.59-3.12,0.65-4.61c0.11-2.92-0.38-5.82-1.58-8.38c-1.44-2.98-3.28-5.66-5.11-8.22
					c-0.82-1.15-1.97-2.76-2.6-3.62C120.94,41.04,120.75,40.81,120.74,40.89L120.74,40.89z"/>
				<path class="st0" d="M123.15,41.22c1.69,3.17,3.82,6.24,5.7,9.4c1.3,2.19,2.46,4.43,3.61,6.73c1.74,3.37,2.83,6.44,2.15,10.23
					c-0.15,1.45,0.09,1.05,0.49-0.17c2.12-7.12-2.63-14.35-6.79-19.55c-1.46-1.88-3.5-4.58-4.52-5.92c-0.46-0.6-0.69-0.88-0.64-0.73
					L123.15,41.22z"/>
				<path class="st0" d="M125.72,42c0.32,0.79,1.2,2.13,1.75,3c2.33,3.58,4.54,6.72,6.95,10.02c1.84,2.54,3.64,4.87,4.83,7.8
					c0.53,1.36,0.79,2.99,1.14,4.31c0.36,1.53,0.48,0.76,0.5-0.46c0.03-6.09-3.92-11.21-7.42-15.71c-1.91-2.37-4.8-6.1-7.15-8.64
					c-0.48-0.49-0.7-0.63-0.61-0.35L125.72,42z"/>
				<path class="st0" d="M128.39,41.84c-0.07,0,0.1,0.33,0.45,0.9c0.53,0.85,1.23,1.93,1.81,2.82c2.16,3.43,4.55,6.29,7.09,9.29
					c2.02,2.45,4.11,4.82,5.86,7.49c0.88,1.34,1.51,3.14,2.05,4.57c0.22,0.57,0.36,0.82,0.43,0.77c0.1-0.86-0.28-2.38-0.6-3.55
					c-0.48-1.68-1.4-3.2-2.33-4.66c-1.54-2.37-3.39-4.62-5.21-6.79c-1.73-2.04-3.55-4.08-5.26-6.02
					C131.32,45.18,129.75,43.07,128.39,41.84L128.39,41.84z"/>
				<path class="st0" d="M131.59,43.61c0.01,0.53,1.14,1.76,1.66,2.47c2.48,3.15,5.54,6.22,8.42,9.05c4.59,4.53,7.6,7.58,9.91,13.89
					c0.63,1.57,0.69,1.23,0.36-0.3c-1.54-8.09-7.19-13.47-12.93-18.56c-1.76-1.58-3.54-3.25-5.26-4.84
					C133.12,44.79,132.06,43.64,131.59,43.61L131.59,43.61z"/>
			</g>
		</g>
	</g>
	<g id="letterhead_00000018960143297267158000000017463430188942304913_">
		<path class="st0" d="M11.06,33.61h8.67v9.9h9.47v-9.9h8.71v28.28H29.2V50.45h-9.47v11.44h-8.67V33.61z"/>
		<path class="st0" d="M61.93,33.61h8.65v16.85c0,1.67-0.26,3.25-0.78,4.73c-0.52,1.48-1.33,2.78-2.43,3.89
			c-1.1,1.11-2.26,1.89-3.47,2.34c-1.68,0.63-3.71,0.94-6.07,0.94c-1.37,0-2.85-0.1-4.47-0.29c-1.61-0.19-2.96-0.58-4.05-1.15
			c-1.08-0.57-2.08-1.38-2.98-2.44c-0.9-1.05-1.52-2.14-1.85-3.26c-0.54-1.8-0.8-3.39-0.8-4.78V33.61h8.65v17.25
			c0,1.54,0.42,2.75,1.27,3.61c0.85,0.87,2.02,1.3,3.53,1.3c1.49,0,2.66-0.43,3.51-1.28c0.85-0.85,1.27-2.07,1.27-3.63V33.61z"/>
		<path class="st0" d="M76.22,33.61h11.4l4.4,17.21l4.37-17.21h11.39v28.28h-7.1V40.32l-5.47,21.56h-6.43l-5.46-21.56v21.56h-7.1
			V33.61z"/>
	</g>
</g>
<g>
	<path class="st2" d="M10.8,76.48V70.4h3.11c0.58,0,1.02,0.05,1.32,0.15s0.55,0.28,0.74,0.55c0.19,0.27,0.28,0.6,0.28,0.99
		c0,0.34-0.07,0.63-0.21,0.87c-0.14,0.24-0.34,0.44-0.59,0.6c-0.16,0.1-0.38,0.18-0.65,0.24c0.22,0.08,0.38,0.15,0.49,0.22
		c0.07,0.05,0.17,0.16,0.3,0.32s0.22,0.29,0.26,0.38l0.9,1.76h-2.11l-1-1.86c-0.13-0.24-0.24-0.4-0.34-0.47
		c-0.13-0.09-0.29-0.14-0.46-0.14h-0.17v2.47H10.8z M12.67,72.86h0.79c0.08,0,0.25-0.03,0.49-0.08c0.12-0.02,0.22-0.09,0.3-0.19
		c0.08-0.1,0.12-0.22,0.12-0.35c0-0.2-0.06-0.35-0.19-0.45s-0.36-0.16-0.7-0.16h-0.82V72.86z"/>
	<path class="st2" d="M17.33,70.4h5v1.3H19.2v0.97h2.9v1.24h-2.9v1.2h3.22v1.38h-5.09V70.4z"/>
	<path class="st2" d="M23.1,74.47l1.77-0.11c0.04,0.29,0.12,0.51,0.23,0.66c0.19,0.25,0.47,0.37,0.82,0.37
		c0.27,0,0.47-0.06,0.62-0.19s0.22-0.27,0.22-0.44c0-0.16-0.07-0.3-0.21-0.42s-0.46-0.24-0.96-0.35c-0.82-0.19-1.4-0.43-1.75-0.74
		c-0.35-0.31-0.53-0.7-0.53-1.17c0-0.31,0.09-0.61,0.27-0.89c0.18-0.28,0.45-0.5,0.81-0.66s0.86-0.24,1.48-0.24
		c0.77,0,1.36,0.15,1.76,0.43s0.65,0.75,0.72,1.38l-1.76,0.1c-0.05-0.27-0.15-0.47-0.29-0.6c-0.15-0.12-0.36-0.19-0.62-0.19
		c-0.22,0-0.38,0.05-0.49,0.14s-0.16,0.21-0.16,0.34c0,0.1,0.04,0.18,0.14,0.26c0.09,0.08,0.3,0.15,0.63,0.22
		c0.81,0.18,1.4,0.36,1.75,0.54c0.35,0.18,0.61,0.41,0.77,0.67s0.24,0.57,0.24,0.9c0,0.39-0.11,0.75-0.32,1.08
		c-0.21,0.33-0.51,0.58-0.9,0.75c-0.38,0.17-0.87,0.25-1.45,0.25c-1.03,0-1.74-0.2-2.13-0.6C23.37,75.59,23.15,75.08,23.1,74.47z"/>
	<path class="st2" d="M29.09,70.4h5.67v1.5h-1.9v4.58h-1.87V71.9h-1.9V70.4z"/>
	<path class="st2" d="M35.08,73.44c0-0.99,0.27-1.77,0.82-2.32c0.55-0.55,1.31-0.83,2.29-0.83c1,0,1.78,0.27,2.32,0.82
		c0.54,0.54,0.81,1.31,0.81,2.28c0,0.71-0.12,1.29-0.36,1.75c-0.24,0.46-0.58,0.81-1.03,1.06c-0.45,0.25-1.01,0.38-1.68,0.38
		c-0.68,0-1.24-0.11-1.69-0.33c-0.45-0.22-0.81-0.56-1.08-1.04S35.08,74.15,35.08,73.44z M36.94,73.45c0,0.61,0.11,1.06,0.34,1.32
		c0.23,0.27,0.53,0.4,0.92,0.4c0.4,0,0.71-0.13,0.93-0.39c0.22-0.26,0.33-0.73,0.33-1.42c0-0.57-0.11-0.99-0.34-1.26
		s-0.54-0.4-0.93-0.4c-0.38,0-0.68,0.13-0.91,0.4C37.06,72.39,36.94,72.83,36.94,73.45z"/>
	<path class="st2" d="M42.36,76.48V70.4h3.11c0.58,0,1.02,0.05,1.32,0.15s0.55,0.28,0.74,0.55c0.19,0.27,0.28,0.6,0.28,0.99
		c0,0.34-0.07,0.63-0.21,0.87c-0.14,0.24-0.34,0.44-0.59,0.6c-0.16,0.1-0.38,0.18-0.65,0.24c0.22,0.08,0.38,0.15,0.49,0.22
		c0.07,0.05,0.17,0.16,0.3,0.32s0.22,0.29,0.26,0.38l0.9,1.76h-2.11l-1-1.86c-0.13-0.24-0.24-0.4-0.34-0.47
		c-0.13-0.09-0.29-0.14-0.46-0.14h-0.17v2.47H42.36z M44.23,72.86h0.79c0.08,0,0.25-0.03,0.49-0.08c0.12-0.02,0.22-0.09,0.3-0.19
		c0.08-0.1,0.12-0.22,0.12-0.35c0-0.2-0.06-0.35-0.19-0.45s-0.36-0.16-0.7-0.16h-0.82V72.86z"/>
	<path class="st2" d="M52.61,75.48h-2.12l-0.29,1h-1.9l2.27-6.08h2.03l2.27,6.08h-1.95L52.61,75.48z M52.22,74.16l-0.67-2.19
		l-0.66,2.19H52.22z"/>
	<path class="st2" d="M54.45,70.4h5.67v1.5h-1.9v4.58h-1.87V71.9h-1.9V70.4z"/>
	<path class="st2" d="M61.04,70.4h1.87v6.08h-1.87V70.4z"/>
	<path class="st2" d="M64.01,73.44c0-0.99,0.27-1.77,0.82-2.32c0.55-0.55,1.31-0.83,2.29-0.83c1,0,1.78,0.27,2.32,0.82
		c0.54,0.54,0.81,1.31,0.81,2.28c0,0.71-0.12,1.29-0.36,1.75c-0.24,0.46-0.58,0.81-1.03,1.06c-0.45,0.25-1.01,0.38-1.68,0.38
		c-0.68,0-1.24-0.11-1.69-0.33c-0.45-0.22-0.81-0.56-1.08-1.04S64.01,74.15,64.01,73.44z M65.88,73.45c0,0.61,0.11,1.06,0.34,1.32
		c0.23,0.27,0.53,0.4,0.92,0.4c0.4,0,0.71-0.13,0.93-0.39c0.22-0.26,0.33-0.73,0.33-1.42c0-0.57-0.11-0.99-0.34-1.26
		s-0.54-0.4-0.93-0.4c-0.38,0-0.68,0.13-0.91,0.4C65.99,72.39,65.88,72.83,65.88,73.45z"/>
	<path class="st2" d="M71.28,70.4h1.74l2.27,3.37V70.4h1.76v6.08H75.3l-2.26-3.34v3.34h-1.75V70.4z"/>
	<path class="st2" d="M77.97,74.47l1.77-0.11c0.04,0.29,0.12,0.51,0.23,0.66c0.19,0.25,0.47,0.37,0.82,0.37
		c0.27,0,0.47-0.06,0.62-0.19s0.22-0.27,0.22-0.44c0-0.16-0.07-0.3-0.21-0.42s-0.46-0.24-0.96-0.35c-0.82-0.19-1.4-0.43-1.75-0.74
		c-0.35-0.31-0.53-0.7-0.53-1.17c0-0.31,0.09-0.61,0.27-0.89c0.18-0.28,0.45-0.5,0.81-0.66s0.86-0.24,1.48-0.24
		c0.77,0,1.36,0.15,1.76,0.43s0.65,0.75,0.72,1.38l-1.76,0.1c-0.05-0.27-0.15-0.47-0.29-0.6c-0.15-0.12-0.36-0.19-0.62-0.19
		c-0.22,0-0.38,0.05-0.49,0.14s-0.16,0.21-0.16,0.34c0,0.1,0.04,0.18,0.14,0.26c0.09,0.08,0.3,0.15,0.63,0.22
		c0.81,0.18,1.4,0.36,1.75,0.54c0.35,0.18,0.61,0.41,0.77,0.67s0.24,0.57,0.24,0.9c0,0.39-0.11,0.75-0.32,1.08
		c-0.21,0.33-0.51,0.58-0.9,0.75c-0.38,0.17-0.87,0.25-1.45,0.25c-1.03,0-1.74-0.2-2.13-0.6C78.24,75.59,78.02,75.08,77.97,74.47z"
		/>
	<path class="st2" d="M87.27,70.4h1.87v6.08h-1.87V70.4z"/>
	<path class="st2" d="M90.49,70.4h1.74l2.27,3.37V70.4h1.76v6.08H94.5l-2.26-3.34v3.34h-1.75V70.4z"/>
	<path class="st2" d="M101.52,73.99l1.63,0.5c-0.11,0.46-0.28,0.85-0.52,1.16c-0.24,0.31-0.53,0.54-0.88,0.7s-0.8,0.24-1.34,0.24
		c-0.66,0-1.19-0.1-1.61-0.29c-0.42-0.19-0.77-0.53-1.08-1.01c-0.3-0.48-0.45-1.1-0.45-1.86c0-1.01,0.27-1.78,0.8-2.32
		c0.53-0.54,1.28-0.81,2.25-0.81c0.76,0,1.36,0.16,1.79,0.46c0.44,0.31,0.76,0.79,0.97,1.43l-1.65,0.37
		c-0.06-0.19-0.12-0.32-0.18-0.41c-0.1-0.14-0.23-0.25-0.38-0.33c-0.15-0.08-0.32-0.12-0.51-0.12c-0.42,0-0.75,0.17-0.97,0.51
		c-0.17,0.25-0.26,0.65-0.26,1.2c0,0.67,0.1,1.14,0.3,1.39s0.49,0.38,0.86,0.38c0.36,0,0.63-0.1,0.81-0.3S101.44,74.38,101.52,73.99
		z"/>
	<path class="st2" d="M104.1,74.79h1.79v1.69h-1.79V74.79z"/>
</g>
</svg>
